PathFileType	4	(X/Y/Z)	Patient4_TMGait_0pt3_03_right_19.trc.trc
DataRate	CameraRate	NumFrames	NumMarkers	Units	OrigDataRate	OrigDataStartFrame	OrigNumFrames
56.000000000000	56.000000000000	4	33	mm	56.000000000000	18	       141
Frame#	Time	Sacral			L.Shoulder			Chest			R.Shoulder			Neck			R.ASIS			L.ASIS			R.Thigh.Superior			R.Thigh.Lateral			R.Thigh.Inferior			R.Patella			L.Thigh.Superior			L.Thigh.Lateral			L.Thigh.Inferior			L.Patella			L.Shank.Superior			L.Shank.Lateral			L.Shank.Inferior			R.Shank.Superior			R.Shank.Lateral			R.Shank.Inferior			R.Heel			R.Midfoot.Superior			R.Midfoot.Lateral			R.Toe			L.Heel			L.Midfoot.Lateral			L.Midfoot.Superior			L.Toe			L.Elbow			L.Wrist			R.Elbow			R.Wrist			
		X1	Y1	Z1	X2	Y2	Z2	X3	Y3	Z3	X4	Y4	Z4	X5	Y5	Z5	X6	Y6	Z6	X7	Y7	Z7	X8	Y8	Z8	X9	Y9	Z9	X10	Y10	Z10	X11	Y11	Z11	X12	Y12	Z12	X13	Y13	Z13	X14	Y14	Z14	X15	Y15	Z15	X16	Y16	Z16	X17	Y17	Z17	X18	Y18	Z18	X19	Y19	Z19	X20	Y20	Z20	X21	Y21	Z21	X22	Y22	Z22	X23	Y23	Z23	X24	Y24	Z24	X25	Y25	Z25	X26	Y26	Z26	X27	Y27	Z27	X28	Y28	Z28	X29	Y29	Z29	X30	Y30	Z30	X31	Y31	Z31	X32	Y32	Z32	X33	Y33	Z33	

18	36.023571428571	690.973730895000	1012.484451586060	402.501409492921	915.728522241757	1433.853823706706	247.415072034199	984.009360132209	1363.343002174238	424.486652049692	873.088392919238	1441.079675701782	580.175627735224	868.177129231686	1496.650489227660	401.486495740833	899.430269244281	947.291827819024	555.312156833693	926.405636409648	957.960439460457	281.323906250173	972.453914784989	768.182657565829	527.438535175488	919.534210534008	650.788533995793	599.179429638382	1004.789798273157	606.899592204969	520.272099703057	1031.582314183789	518.801095641708	542.231926551338	939.522323106025	732.232796850682	322.477572082407	843.406230044666	626.105924106125	250.627058580868	902.251128694999	541.295520976667	327.803656878483	890.490207233142	474.463988349516	339.053405099069	857.957744064183	405.673141597241	328.171206962499	766.091117901373	299.749823284233	265.747078160489	788.219200941943	186.672330892353	346.732578991808	1000.146891491281	429.813139518174	555.815108633680	926.538750994262	330.276732766933	622.859448531551	978.911712952453	231.576508194675	574.870837815432	854.916815359120	55.979738708183	553.553108476326	1023.217997900830	116.217227819378	590.617415365856	939.798410968708	48.398274173363	626.732951001117	1145.212594258190	72.743537022384	617.581163293697	640.939003484006	38.995986268668	372.168433021441	723.531652032707	35.038425522947	300.973650940492	804.625279555680	94.836391247241	337.983372028341	934.685461249906	40.056432540222	323.147004370442	952.755353167013	1096.173759757399	105.999824320881	1195.054464774474	1004.045102834257	113.367342031461	722.656514922194	1123.383071395155	672.988411202183	705.731842916778	864.419442849227	694.289806022157	
19	36.041428571429	691.721362359276	1012.023754250397	403.948871360947	917.174429565817	1433.305610358909	250.603482636832	984.489820143607	1362.891049382961	428.015961667334	872.825834679425	1440.803965619902	583.096865159573	868.325536616999	1496.065186206770	404.385736184632	899.056319002466	946.348116328969	558.199003290124	927.551211781629	957.257556064365	284.312390304510	970.113259463705	765.648356337634	531.646329202154	914.575076113453	648.696538050503	602.390284299514	1000.246092746963	604.605316475621	524.177361859244	1026.240934929725	518.775955330862	544.851575917378	937.407825822317	730.874063589652	324.864062894963	840.000259763151	626.316393186917	251.377759240610	896.812780919553	540.471563662966	328.501754370191	883.942525161511	474.209411519014	339.416176647106	852.077717733269	405.759213213050	328.236370093572	760.254337942161	299.756885131400	265.698330729402	782.505756575555	186.645395691550	346.740282452971	999.198252464239	429.182630775113	558.289796853055	930.613827906571	325.789888512443	625.627293647036	987.463208351873	229.571647046678	576.910059317928	871.045501593539	49.195253144547	555.972055256190	1037.587157466160	115.106429238052	591.833216095171	956.941980187710	43.962392888700	628.292546195252	1161.613752949695	75.650563638148	617.216966420907	635.479983371820	38.807005825547	372.129222342964	718.052647189527	34.906093649277	300.942918512373	799.088339674840	94.776661942144	338.000858462548	929.202089458899	40.083969048742	323.211339158678	957.656898879037	1096.815549496849	108.382746010264	1203.391565127452	1015.714462297658	117.198324483500	718.367887639552	1125.017559011140	673.222630255758	699.468805368121	865.814253986864	693.067801247477	
20	36.059285714286	692.760564026622	1011.037235823188	405.781136283222	918.200565664414	1432.481450230466	254.069181669811	984.906134330433	1362.216420216165	431.701557765465	872.634986510936	1440.111060651738	586.384725561297	868.292314905446	1495.139691737251	407.650509936318	899.159360483524	944.975309231102	561.192738678392	929.011333322821	956.342084617554	287.407056787798	968.458259854235	762.807884125873	536.002473430086	910.264403576957	646.178139777338	605.436271453769	996.644084423126	602.078706201511	528.069359353988	1021.420180115952	518.025784153345	547.372403070407	935.939074218068	729.364784964428	327.278600785242	837.276494327829	626.265535927347	252.371293620226	892.234330625144	539.487117198083	329.381974027333	878.353926787638	473.700290499301	339.984122476880	846.909632731052	405.559217392870	328.528228881428	754.891808694057	299.712703578787	265.808959803504	777.035559193360	186.484363724578	346.825176613531	998.014788275307	428.014867029398	560.608308214361	933.363329442832	321.750031968987	627.863391634089	993.719865405475	227.685708040522	578.566006266070	883.257277847260	44.491945248060	557.525704658382	1048.404279193475	113.995870850104	592.813654629530	969.648593670766	40.829845518603	629.335880225526	1173.511813368984	77.121433116129	617.071706101500	630.027173992142	38.622563715771	372.104271172607	712.586860075987	34.786663101103	300.927495818265	793.561514018463	94.720274401593	338.040594850320	923.731471684893	40.087251737752	323.269702189182	962.388561942914	1097.170033518155	111.053810715101	1210.934322307405	1026.641745192901	121.146617188764	715.521020438143	1125.613572253120	673.966434045365	695.239041150535	866.127308318735	692.526410509027	
21	36.077142857143	694.113077453423	1009.650435139372	407.994903395847	918.851614713325	1431.506585819152	257.811660208727	985.270329912089	1361.442848236767	435.563571657904	872.474623209764	1439.111813594474	590.029430031334	868.081494636882	1493.986371791392	411.277635750553	899.772328582808	943.331353750889	564.309770257944	930.799491115521	955.316682067261	290.632143021910	967.594145284643	759.866711113630	540.392430700022	906.786709118916	643.420370889885	608.234090407451	994.111600803893	599.490832240762	531.834982332013	1017.336863494341	516.678223391848	549.728609115664	935.129575226778	727.759390994495	329.717533284775	835.211543453223	626.014310929017	253.643417045908	888.520543662935	538.388583614054	330.467758602128	873.730171787282	472.965892611198	340.784236495905	842.438156262765	405.120068619777	329.070356908892	749.990587928335	299.674767438000	266.094884632011	771.811580868120	186.233042528752	346.985362426183	996.755186552452	426.386782595663	562.708809862003	934.881451750624	318.150534711986	629.575596055654	997.747094962802	225.806852455144	579.808721756239	891.431899121828	41.538888309956	558.277020862662	1055.696830614477	112.715679078948	593.529407081575	977.887720917250	38.745885824712	629.924960160784	1181.094238826260	77.025523445711	617.148006268174	624.586082792783	38.479507458823	372.088104955148	707.143383931140	34.701174551639	300.928405918461	788.062426582031	94.682292325386	338.092486192535	918.282673667613	40.061567619290	323.315538295172	966.848065437368	1097.306799612984	114.067544029602	1217.627327614272	1036.724932063028	125.208865956945	714.066008104495	1125.240857931089	675.286697597167	692.963263681972	865.455759524155	692.808308618581	
